<svg width="100" height="57" viewBox="0 0 100 57" fill="none" xmlns="http://www.w3.org/2000/svg">
<path d="M0 0H16.1797C24.3391 0 26.4253 5.09937 26.4253 8.53027C26.4253 13.3054 23.7363 14.6499 22.3457 15.3452C26.4253 16.8752 27.4917 20.1204 27.4917 23.4119C27.4917 26.0544 26.3789 28.5579 24.6174 30.2732C22.7166 32.1277 20.9084 33.2866 14.0938 33.2866H0V0ZM6.67603 13.0271H14.8352C17.5706 13.0271 19.7495 11.9609 19.7495 9.31836C19.7495 6.58325 17.8022 5.74878 14.6499 5.74878H6.67603V13.0271ZM6.67603 27.5378H15.2061C18.5906 27.5378 20.5376 26.0544 20.5376 22.6702C20.5376 19.7495 18.0342 18.6367 15.5308 18.6367H6.67603V27.5378Z" fill="#FF2A2A"/>
<path d="M36.2542 0H52.4338C60.5933 0 62.6794 5.09937 62.6794 8.53027C62.6794 13.3054 59.9905 14.6499 58.5999 15.3452C62.6794 16.8752 63.7458 20.1204 63.7458 23.4119C63.7458 26.0544 62.6331 28.5579 60.8716 30.2732C58.9707 32.1277 57.1626 33.2866 50.3479 33.2866H36.2542V0ZM42.9302 13.0271H51.0894C53.8247 13.0271 56.0037 11.9609 56.0037 9.31836C56.0037 6.58325 54.0564 5.74878 50.9041 5.74878H42.9302V13.0271ZM42.9302 27.5378H51.4602C54.8447 27.5378 56.7917 26.0544 56.7917 22.6702C56.7917 19.7495 54.2883 18.6367 51.7849 18.6367H42.9302V27.5378Z" fill="#FF2A2A"/>
<path d="M72.5083 0H88.688C96.8474 0 98.9336 5.09937 98.9336 8.53027C98.9336 13.3054 96.2446 14.6499 94.8542 15.3452C98.9336 16.8752 100 20.1204 100 23.4119C100 26.0544 98.8872 28.5579 97.1257 30.2732C95.2249 32.1277 93.4167 33.2866 86.6021 33.2866H72.5083V0ZM79.1843 13.0271H87.3435C90.0789 13.0271 92.2578 11.9609 92.2578 9.31836C92.2578 6.58325 90.3105 5.74878 87.1582 5.74878H79.1843V13.0271ZM79.1843 27.5378H87.7146C91.0989 27.5378 93.0459 26.0544 93.0459 22.6702C93.0459 19.7495 90.5427 18.6367 88.0391 18.6367H79.1843V27.5378Z" fill="#FF2A2A"/>
<path d="M15.0161 55.1399C14.8394 55.2998 14.6819 55.5376 14.5439 55.8525C14.4497 56.0569 14.3586 56.1592 14.2705 56.1592C14.2148 56.1592 14.135 56.1426 14.03 56.1094C12.4832 55.7446 11.1101 55.1619 9.91113 54.3608C8.73438 53.5708 7.823 52.626 7.17651 51.5266C6.96655 52.0349 6.73438 52.4714 6.48071 52.8359C5.43066 54.3333 3.59668 55.4243 0.977783 56.1094C0.845459 56.1313 0.767822 56.1426 0.74585 56.1426C0.651855 56.1426 0.560791 56.0513 0.472412 55.8691C0.35083 55.6589 0.193359 55.4575 0 55.2642C2.8064 54.6731 4.71265 53.6482 5.71802 52.1897C5.93896 51.8694 6.11841 51.5129 6.25659 51.1206H2.51099L0.248779 51.1538C0.160156 51.1538 0.115967 51.1096 0.115967 51.021V50.3C0.115967 50.2117 0.160156 50.1675 0.248779 50.1675L2.27075 50.2007V47.8472L2.23755 46.3967C2.23755 46.3086 2.28174 46.2644 2.37012 46.2644L4.76514 46.2974H6.83667C6.83667 45.491 6.80371 44.8997 6.73755 44.5239C7.00269 44.5352 7.35059 44.5627 7.78174 44.6069C7.94165 44.6235 8.02197 44.6787 8.02197 44.7727C8.02197 44.8003 7.99414 44.897 7.93896 45.0627C7.8894 45.1677 7.8562 45.5793 7.8396 46.2974H9.99414L12.3728 46.2644C12.4609 46.2644 12.5051 46.3086 12.5051 46.3967L12.4719 47.8472V50.2007L14.5938 50.1675C14.6819 50.1675 14.7261 50.2117 14.7261 50.3V51.021C14.7261 51.1096 14.6819 51.1538 14.5938 51.1538L12.3396 51.1206H7.97217C9.35889 53.2366 11.707 54.5764 15.0161 55.1399ZM14.7842 43.604C14.7842 43.6926 14.7371 43.7368 14.6431 43.7368L12.4387 43.7036H10.1021L10.1353 45.0793C10.1353 45.1677 10.0881 45.2119 9.99414 45.2119H9.24854C9.15991 45.2119 9.11572 45.1677 9.11572 45.0793L9.14893 43.7036H5.58545L5.61865 45.0793C5.61865 45.1677 5.57422 45.2119 5.48608 45.2119H4.71533C4.63794 45.2119 4.59937 45.1677 4.59937 45.0793L4.63232 43.7036H2.36182L0.14917 43.7368C0.060791 43.7368 0.0166016 43.6926 0.0166016 43.604V42.8667C0.0166016 42.7783 0.060791 42.7341 0.14917 42.7341L2.36182 42.7671H4.63232C4.63232 41.8723 4.59375 41.2783 4.51636 40.9856C4.8645 41.002 5.22095 41.0298 5.58545 41.0684C5.70703 41.0906 5.76782 41.1428 5.76782 41.2258C5.76782 41.27 5.73999 41.3418 5.68506 41.4412C5.61865 41.5793 5.58545 42.0212 5.58545 42.7671H9.14893C9.14893 41.8611 9.11011 41.2617 9.03296 40.969C9.45288 40.9856 9.8064 41.0186 10.0938 41.0684C10.2205 41.0906 10.2842 41.1428 10.2842 41.2258C10.2842 41.2866 10.2566 41.3584 10.2014 41.4412C10.1353 41.5627 10.1021 41.9773 10.1021 42.6843V42.7671H12.4387L14.6431 42.7341C14.7371 42.7341 14.7842 42.7783 14.7842 42.8667V43.604ZM6.82007 47.2007H3.27344V50.2007H6.54663C6.7124 49.4329 6.80371 48.4329 6.82007 47.2007ZM11.4529 50.2007V47.2007H7.823C7.77856 48.5156 7.6875 49.5156 7.54956 50.2007H11.4529Z" fill="#FF2A2A"/>
<path d="M32.4851 47.0764C32.2808 47.281 32.1179 47.5073 31.9963 47.7561C31.897 47.9382 31.8225 48.0295 31.7727 48.0295C31.7339 48.0295 31.6538 47.9963 31.5325 47.9299C28.4495 46.5654 26.074 44.687 24.4053 42.2949C22.842 44.582 20.5684 46.4714 17.5852 47.9631C17.4636 48.0295 17.3782 48.0627 17.3284 48.0627C17.2732 48.0627 17.1982 47.9771 17.1045 47.8057C16.9607 47.5684 16.7869 47.3777 16.5825 47.2339C18.1899 46.5654 19.6292 45.7007 20.8999 44.6401C21.9661 43.7451 22.8308 42.7754 23.4939 41.7312C23.7036 41.3667 23.8503 41.0518 23.9329 40.7866C24.3528 40.8418 24.7065 40.9136 24.9939 41.002C25.1541 41.0518 25.2341 41.1208 25.2341 41.2092C25.2341 41.2922 25.1953 41.353 25.1182 41.3916C25.1016 41.4026 25.0405 41.4441 24.9358 41.5159C25.9963 42.9358 27.2009 44.1152 28.5491 45.0544C29.6707 45.8389 30.9824 46.5129 32.4851 47.0764ZM31.1926 50.4824C31.1926 50.571 31.1482 50.615 31.0601 50.615L28.7148 50.582H23.5271C22.947 52.0349 22.3584 53.3416 21.7617 54.5017C23.668 54.3748 25.7588 54.1841 28.0352 53.9299C27.5713 53.3333 27.0405 52.709 26.4441 52.0569C26.4053 52.0183 26.386 51.9854 26.386 51.9575C26.386 51.9189 26.4385 51.8748 26.5435 51.825L27.0405 51.5515C27.1069 51.5183 27.1567 51.5017 27.1897 51.5017C27.2229 51.5017 27.2561 51.5183 27.2893 51.5515C28.3113 52.5847 29.3997 53.9243 30.5544 55.5708C30.582 55.6091 30.5959 55.6423 30.5959 55.6702C30.5959 55.7197 30.5515 55.7725 30.4634 55.8276L29.9412 56.1841C29.8472 56.239 29.7837 56.2668 29.7505 56.2668C29.7119 56.2668 29.6677 56.2336 29.6179 56.1675C29.165 55.4768 28.8418 55.0017 28.6484 54.7419C25.8196 55.1121 22.7039 55.4216 19.3005 55.6702C18.936 55.7087 18.7205 55.7612 18.6541 55.8276C18.5876 55.8938 18.5132 55.927 18.4304 55.927C18.3474 55.927 18.2869 55.8662 18.2483 55.7446C18.1541 55.4409 18.0686 55.0596 17.9912 54.6011C18.2676 54.6177 18.5491 54.626 18.8364 54.626C19.135 54.626 19.469 54.6177 19.8394 54.6011C19.9885 54.6011 20.2314 54.5901 20.5684 54.5681C21.2864 53.22 21.8806 51.8914 22.3503 50.582H20.3198L17.9912 50.615C17.8918 50.615 17.842 50.571 17.842 50.4824V49.7283C17.842 49.6399 17.8918 49.5957 17.9912 49.5957L20.3198 49.6289H28.7148L31.0601 49.5957C31.1482 49.5957 31.1926 49.6399 31.1926 49.7283V50.4824ZM27.9854 47.3748C27.9854 47.4631 27.9412 47.5073 27.8528 47.5073L25.864 47.4744H23.1125L21.1318 47.5073C21.0381 47.5073 20.991 47.4631 20.991 47.3748V46.6372C20.991 46.5488 21.0381 46.5046 21.1318 46.5046L23.1125 46.5378H25.864L27.8528 46.5046C27.9412 46.5046 27.9854 46.5488 27.9854 46.6372V47.3748Z" fill="#FF2A2A"/>
<path d="M39.8691 44.9468C39.8691 45.0461 39.822 45.0959 39.728 45.0959L37.9465 45.0627H35.8582L34.0762 45.0959C33.9878 45.0959 33.9438 45.0461 33.9438 44.9468V44.2422C33.9438 44.1541 33.9878 44.1096 34.0762 44.1096L35.8582 44.1428H37.9465L39.728 44.1096C39.822 44.1096 39.8691 44.1541 39.8691 44.2422V44.9468ZM39.3967 55.8442C39.3967 55.9324 39.3496 55.9768 39.2559 55.9768H38.5596C38.4712 55.9768 38.427 55.9324 38.427 55.8442V55.2808H35.6758V56.1426C35.6758 56.2363 35.6316 56.2834 35.5432 56.2834H34.8472C34.7532 56.2834 34.7061 56.2363 34.7061 56.1426L34.7393 53.6482V52.6121L34.7061 51.1372C34.7061 51.0488 34.7505 51.0044 34.8389 51.0044L36.3389 51.0376H37.7478L39.2639 51.0044C39.3523 51.0044 39.3967 51.0488 39.3967 51.1372L39.3635 52.3469V53.4492L39.3967 55.8442ZM39.4629 42.6013C39.4629 42.6899 39.416 42.7341 39.3223 42.7341L37.8303 42.7009H36.3718L34.8804 42.7341C34.7861 42.7341 34.7393 42.6899 34.7393 42.6013V41.9219C34.7393 41.8335 34.7861 41.7893 34.8804 41.7893L36.3718 41.8225H37.8303L39.3223 41.7893C39.416 41.7893 39.4629 41.8335 39.4629 41.9219V42.6013ZM39.2227 47.2505C39.2227 47.3389 39.1702 47.3831 39.0652 47.3831L37.6814 47.3499H36.405L34.9961 47.3831C34.9077 47.3831 34.8638 47.3389 34.8638 47.2505V46.5876C34.8638 46.4993 34.9077 46.4548 34.9961 46.4548L36.405 46.488H37.6814L39.0652 46.4548C39.1702 46.4548 39.2227 46.4993 39.2227 46.5876V47.2505ZM39.2227 49.5046C39.2227 49.5986 39.1702 49.6455 39.0652 49.6455L37.6814 49.6123H36.405L34.9961 49.6455C34.9077 49.6455 34.8638 49.5986 34.8638 49.5046V48.8416C34.8638 48.7534 34.9077 48.709 34.9961 48.709L36.405 48.7422H37.6814L39.0652 48.709C39.1702 48.709 39.2227 48.7534 39.2227 48.8416V49.5046ZM38.427 54.4519V51.8665H35.6758V54.4519H38.427ZM49.051 47.1843C49.051 47.2727 49.0042 47.3167 48.9102 47.3167L46.6396 47.2837H44.8745V50.0847H45.8606L47.8826 50.0515C47.9709 50.0515 48.0154 50.0957 48.0154 50.1841L47.9822 51.7834V53.2253L48.0154 56.043C48.0154 56.1313 47.9709 56.1758 47.8826 56.1758H47.1121C47.0237 56.1758 46.9792 56.1313 46.9792 56.043V55.2971H41.9243V56.1426C41.9243 56.2363 41.8799 56.2834 41.7915 56.2834H41.021C40.9326 56.2834 40.8882 56.2363 40.8882 56.1426L40.9214 53.2751V52.0073L40.8882 50.1841C40.8882 50.0957 40.9326 50.0515 41.021 50.0515L43.0432 50.0847H43.855V47.2837H42.4299L40.1758 47.3167C40.0872 47.3167 40.0432 47.2727 40.0432 47.1843V46.4465C40.0432 46.3584 40.0872 46.314 40.1758 46.314L42.4299 46.3472H43.855V43.4717C42.938 43.676 41.9932 43.8445 41.021 43.9771C40.9436 43.9883 40.8882 43.9937 40.855 43.9937C40.7725 43.9937 40.6978 43.908 40.6313 43.7368C40.5376 43.4883 40.4021 43.2756 40.2256 43.0986C42.5898 42.8777 44.6257 42.4246 46.333 41.7395C46.7693 41.5574 47.1035 41.3696 47.3357 41.176C47.623 41.4246 47.8547 41.6624 48.032 41.8889C48.1091 41.9829 48.1479 42.0684 48.1479 42.1458C48.1479 42.2341 48.0566 42.2783 47.8745 42.2783C47.7253 42.2783 47.5513 42.3196 47.3523 42.4026C46.5068 42.7175 45.6809 42.9883 44.8745 43.2146V46.3472H46.6396L48.9102 46.314C49.0042 46.314 49.051 46.3584 49.051 46.4465V47.1843ZM46.9792 54.3938V50.988H41.9243V54.3938H46.9792Z" fill="#FF2A2A"/>
<path d="M57.3796 50.1841C55.8989 52.4658 53.8796 54.2532 51.3218 55.5459L50.5759 54.5681C52.9458 53.3306 54.7942 51.7422 56.1199 49.8027C57.2581 48.1345 58.0869 46.0957 58.6062 43.687H51.4792V42.5518H60.28C59.783 45.0601 59.0369 47.2256 58.0425 49.0488C59.5784 50.894 60.896 52.7944 61.9954 54.7502L60.7441 55.5459C59.8491 53.7061 58.7275 51.9189 57.3796 50.1841Z" fill="#FF2A2A"/>
<path d="M67.8875 44.3003C67.092 46.2009 66.0505 47.8279 64.7634 49.1814L63.7939 48.4355C65.606 46.5129 66.8267 44.1594 67.4565 41.375L68.7993 41.5823C68.6831 42.0186 68.5203 42.5491 68.3103 43.1733H74.1941C73.6638 47.0737 72.5837 50.0461 70.9539 52.0901C69.6887 53.6758 67.9014 54.9299 65.592 55.8525L64.8462 54.9409C67.2495 53.9851 69.0615 52.6453 70.2827 50.9216C71.4595 49.2642 72.2549 47.0571 72.6694 44.3003H67.8875Z" fill="#FF2A2A"/>
<path d="M76.3323 48.0793H85.564V49.3389H76.3323V48.0793Z" fill="#FF2A2A"/>
<path d="M91.1079 42.1208C91.1079 45.3362 91.0527 47.6565 90.9424 49.082C90.8484 50.2754 90.6882 51.2256 90.4619 51.9326C90.0142 53.3359 89.1882 54.5542 87.9836 55.5874L86.9978 54.8167C88.075 54.0488 88.8457 52.9243 89.3098 51.4438C89.5195 50.7366 89.6606 49.5737 89.7324 47.9548C89.7876 46.7007 89.8154 44.7561 89.8154 42.1208H91.1079ZM94.7212 53.6316C96.561 52.3831 98.0305 50.4382 99.1299 47.7974L100 48.9329C98.5635 51.8777 96.6162 54.0955 94.1577 55.5874L93.4285 55.2061V42.0046H94.7212V53.6316Z" fill="#FF2A2A"/>
</svg>
